<svg width="31" height="26" viewBox="0 0 31 26" fill="none" xmlns="http://www.w3.org/2000/svg">
<path id="Vector" d="M9.70395 25.073C21.3482 25.073 27.7171 15.4259 27.7171 7.05987C27.7171 6.78586 27.7171 6.51308 27.6986 6.24154C28.9376 5.34534 30.0072 4.23567 30.8571 2.96451C29.7017 3.47649 28.476 3.81225 27.2209 3.96058C28.5425 3.16938 29.5317 1.92496 30.0043 0.458908C28.7615 1.19634 27.4019 1.71604 25.9842 1.99559C25.0297 0.980621 23.7672 0.308532 22.3923 0.0833307C21.0173 -0.141871 19.6064 0.0923695 18.378 0.749805C17.1495 1.40724 16.172 2.45122 15.5967 3.72018C15.0213 4.98915 14.8803 6.41236 15.1953 7.76958C12.6783 7.6434 10.2159 6.9893 7.9681 5.84976C5.72028 4.71022 3.73722 3.1107 2.14766 1.15504C1.33808 2.54875 1.09012 4.19862 1.45427 5.76873C1.81842 7.33884 2.7673 8.71113 4.1077 9.6062C3.10021 9.57634 2.11468 9.30456 1.23429 8.81379C1.23429 8.83971 1.23429 8.86686 1.23429 8.89402C1.23469 10.3557 1.74067 11.7722 2.66641 12.9033C3.59215 14.0345 4.88065 14.8106 6.31337 15.1C5.38133 15.3542 4.40341 15.3913 3.45477 15.2086C3.85931 16.4666 4.64692 17.5666 5.70742 18.3549C6.76793 19.1432 8.0483 19.5803 9.36946 19.6051C7.12767 21.367 4.35834 22.3234 1.50706 22.3206C1.00336 22.3196 0.500138 22.2891 0 22.2292C2.89518 24.0872 6.26389 25.0727 9.70395 25.0681" fill="white"/>
</svg>
