<svg width="34" height="34" viewBox="0 0 34 34" fill="none" xmlns="http://www.w3.org/2000/svg">
<g id="Group 775">
<circle id="Ellipse 1700" cx="17" cy="17" r="17" fill="#1E1E1E"/>
<path id="Vector" d="M17 7.25C15.0716 7.25 13.1866 7.82183 11.5832 8.89317C9.97982 9.96451 8.73013 11.4873 7.99218 13.2688C7.25422 15.0504 7.06114 17.0108 7.43735 18.9021C7.81355 20.7934 8.74215 22.5307 10.1057 23.8943C11.4693 25.2579 13.2066 26.1865 15.0979 26.5627C16.9892 26.9389 18.9496 26.7458 20.7312 26.0078C22.5127 25.2699 24.0355 24.0202 25.1068 22.4168C26.1782 20.8134 26.75 18.9284 26.75 17C26.7473 14.415 25.7192 11.9366 23.8913 10.1087C22.0634 8.28084 19.585 7.25273 17 7.25ZM22.25 17.75H17C16.8011 17.75 16.6103 17.671 16.4697 17.5303C16.329 17.3897 16.25 17.1989 16.25 17V11.75C16.25 11.5511 16.329 11.3603 16.4697 11.2197C16.6103 11.079 16.8011 11 17 11C17.1989 11 17.3897 11.079 17.5303 11.2197C17.671 11.3603 17.75 11.5511 17.75 11.75V16.25H22.25C22.4489 16.25 22.6397 16.329 22.7803 16.4697C22.921 16.6103 23 16.8011 23 17C23 17.1989 22.921 17.3897 22.7803 17.5303C22.6397 17.671 22.4489 17.75 22.25 17.75Z" fill="white"/>
</g>
</svg>
