<svg width="31" height="31" viewBox="0 0 31 31" fill="none" xmlns="http://www.w3.org/2000/svg">
<path id="Union" fill-rule="evenodd" clip-rule="evenodd" d="M15.4286 2.77986C19.5485 2.77986 20.036 2.79579 21.6632 2.86989C23.1674 2.93849 23.9844 3.18959 24.5282 3.40088C25.2484 3.68076 25.7623 4.01516 26.3024 4.55472C26.8426 5.09489 27.177 5.60872 27.4563 6.32895C27.6676 6.8728 27.9187 7.6898 27.9873 9.19395C28.0614 10.8206 28.0773 11.3087 28.0773 15.4286C28.0773 19.5485 28.0614 20.036 27.9873 21.6632C27.9187 23.1674 27.6676 23.9844 27.4563 24.5282C27.1764 25.2484 26.842 25.7623 26.3024 26.3025C25.7623 26.8426 25.2484 27.177 24.5282 27.4563C23.9844 27.6676 23.1674 27.9187 21.6632 27.9873C20.0366 28.0614 19.5485 28.0773 15.4286 28.0773C11.3087 28.0773 10.8206 28.0614 9.19394 27.9873C7.68979 27.9187 6.87279 27.6676 6.32895 27.4563C5.60872 27.1764 5.09488 26.842 4.55471 26.3025C4.01454 25.7623 3.68015 25.2484 3.40088 24.5282C3.18958 23.9844 2.93848 23.1674 2.86989 21.6632C2.79579 20.0366 2.77986 19.5485 2.77986 15.4286C2.77986 11.3087 2.79579 10.8212 2.86989 9.19395C2.93848 7.6898 3.18958 6.8728 3.40088 6.32895C3.68076 5.60872 4.01515 5.09489 4.55471 4.55472C5.09488 4.01454 5.60872 3.68015 6.32895 3.40088C6.87279 3.18959 7.68979 2.93849 9.19394 2.86989C10.8212 2.79579 11.3087 2.77986 15.4286 2.77986ZM15.4286 0C11.2383 0 10.7128 0.0177608 9.06717 0.0930909C7.42522 0.167809 6.30384 0.428708 5.3221 0.810258C4.30729 1.20467 3.44681 1.73198 2.58939 2.59001C1.73198 3.44742 1.20406 4.3079 0.810257 5.3221C0.428708 6.30384 0.167808 7.42522 0.0930908 9.06717C0.0177607 10.7128 0 11.2383 0 15.4286C0 19.6189 0.0177607 20.1444 0.0930908 21.79C0.167808 23.4319 0.428708 24.5533 0.810257 25.5351C1.20467 26.5499 1.73198 27.4104 2.59001 28.2678C3.44803 29.1258 4.3079 29.6531 5.32271 30.0475C6.30384 30.4291 7.42583 30.69 9.06778 30.7647C10.7134 30.84 11.2389 30.8578 15.4292 30.8578C19.6195 30.8578 20.145 30.84 21.7906 30.7647C23.4325 30.69 24.5545 30.4291 25.5357 30.0475C26.5505 29.6531 27.4109 29.1258 28.2684 28.2678C29.1264 27.4097 29.6537 26.5499 30.0481 25.5351C30.4297 24.5539 30.6906 23.4319 30.7653 21.79C30.8406 20.1444 30.8584 19.6189 30.8584 15.4286C30.8584 11.2383 30.8406 10.7128 30.7653 9.06717C30.6906 7.42522 30.4297 6.30323 30.0481 5.3221C29.6537 4.30729 29.1264 3.44681 28.2684 2.5894C27.4103 1.73137 26.5505 1.20406 25.5357 0.809646C24.5533 0.428708 23.4319 0.167809 21.79 0.0930909C20.1444 0.0177608 19.6189 0 15.4286 0ZM15.429 7.5067C11.0531 7.5067 7.50649 11.0539 7.50649 15.4292C7.50649 19.8045 11.0537 23.3517 15.429 23.3517C19.8043 23.3517 23.3515 19.8045 23.3515 15.4292C23.3515 11.0539 19.8049 7.5067 15.429 7.5067ZM15.429 20.5719C12.5885 20.5719 10.2863 18.2691 10.2863 15.4292C10.2863 12.5887 12.5891 10.2866 15.429 10.2866C18.2689 10.2866 20.5717 12.5893 20.5717 15.4292C20.5717 18.2697 18.2695 20.5719 15.429 20.5719ZM25.5162 7.19515C25.5162 8.21766 24.6873 9.04656 23.6648 9.04656C22.6423 9.04656 21.8134 8.21766 21.8134 7.19515C21.8134 6.17265 22.6423 5.34375 23.6648 5.34375C24.6873 5.34375 25.5162 6.17265 25.5162 7.19515Z" fill="white"/>
</svg>
