<svg width="31" height="31" viewBox="0 0 31 31" fill="none" xmlns="http://www.w3.org/2000/svg">
<g id="ri:linkedin-fill">
<path id="Vector" d="M8.92277 6.42867C8.92242 7.11066 8.65118 7.76457 8.1687 8.24657C7.68622 8.72857 7.03204 8.99916 6.35005 8.99881C5.66807 8.99847 5.01415 8.72723 4.53215 8.24475C4.05016 7.76227 3.77957 7.10809 3.77991 6.4261C3.78025 5.74411 4.05149 5.0902 4.53397 4.6082C5.01645 4.12621 5.67064 3.85562 6.35262 3.85596C7.03461 3.8563 7.68852 4.12754 8.17052 4.61002C8.65252 5.0925 8.92311 5.74669 8.92277 6.42867ZM8.99991 10.903H3.85705V27.0001H8.99991V10.903ZM17.1256 10.903H12.0085V27.0001H17.0742V18.553C17.0742 13.8472 23.2071 13.4101 23.2071 18.553V27.0001H28.2856V16.8044C28.2856 8.87153 19.2085 9.16724 17.0742 13.063L17.1256 10.903Z" fill="white"/>
</g>
</svg>
