<svg width="18" height="17" viewBox="0 0 18 17" fill="none" xmlns="http://www.w3.org/2000/svg">
<g id="Linkedin" clip-path="url(#clip0_128_6)">
<path id="Vector" d="M-6.10352e-05 1.97499C-6.10352e-05 1.40259 0.202647 0.930366 0.608047 0.558324C1.01345 0.186265 1.54049 0.000244141 2.18913 0.000244141C2.8262 0.000244141 3.34163 0.183397 3.73546 0.549738C4.14086 0.927515 4.34357 1.41976 4.34357 2.0265C4.34357 2.576 4.14666 3.0339 3.75283 3.40024C3.34743 3.77802 2.81461 3.9669 2.15438 3.9669H2.137C1.49993 3.9669 0.984501 3.77802 0.590673 3.40024C0.196844 3.02246 -6.10352e-05 2.54737 -6.10352e-05 1.97499ZM0.225808 17.0002V5.52953H4.08295V17.0002H0.225808ZM6.22002 17.0002H10.0772V10.5952C10.0772 10.1945 10.1235 9.8854 10.2162 9.6679C10.3783 9.27867 10.6245 8.94954 10.9546 8.68053C11.2847 8.4115 11.6988 8.277 12.1968 8.277C13.4942 8.277 14.1428 9.1413 14.1428 10.8699V17.0002H17.9999V10.4235C17.9999 8.72918 17.5945 7.44417 16.7837 6.56842C15.9729 5.69266 14.9015 5.25478 13.5694 5.25478C12.0752 5.25478 10.9111 5.89013 10.0772 7.16084V7.19518H10.0598L10.0772 7.16084V5.52953H6.22002C6.24318 5.89585 6.25477 7.0349 6.25477 8.94669C6.25477 10.8585 6.24318 13.543 6.22002 17.0002Z" fill="#BCC2C3"/>
</g>
<defs>
<clipPath id="clip0_128_6">
<rect width="18" height="17" fill="white"/>
</clipPath>
</defs>
</svg>
