<svg width="56" height="60" viewBox="0 0 56 60" fill="none" xmlns="http://www.w3.org/2000/svg">
<g id="Group 8">
<path id="Vector" d="M0 3.68212V56.3153C0.000352614 56.4295 0.034411 56.5411 0.0979044 56.636C0.161398 56.7309 0.2515 56.805 0.356912 56.8489C0.462324 56.8928 0.578354 56.9046 0.690452 56.8828C0.802549 56.861 0.905725 56.8067 0.98704 56.7265L28.3925 30.0001L0.98704 3.27096C0.905725 3.19079 0.802549 3.13641 0.690452 3.11464C0.578354 3.09287 0.462324 3.10468 0.356912 3.14859C0.2515 3.1925 0.161398 3.26655 0.0979044 3.36147C0.034411 3.45638 0.000352614 3.56793 0 3.68212Z" fill="#3BCCFF"/>
<path id="Vector_2" d="M39.8835 19.018L5.52054 0.0861125L5.49912 0.074059C4.90716 -0.247365 4.34467 0.553517 4.82948 1.01958L31.7662 26.7764L39.8835 19.018Z" fill="#48FF48"/>
<path id="Vector_3" d="M4.83203 58.9802C4.34453 59.4462 4.90703 60.2471 5.50166 59.9257L5.52309 59.9136L39.8833 40.9818L31.766 33.2207L4.83203 58.9802Z" fill="#FF3333"/>
<path id="Vector_4" d="M53.7555 26.6519L44.1596 21.3672L35.137 30.0001L44.1596 38.629L53.7555 33.3483C56.3657 31.9059 56.3657 28.0943 53.7555 26.6519Z" fill="#FFD400"/>
</g>
</svg>
