<svg width="34" height="34" viewBox="0 0 34 34" fill="none" xmlns="http://www.w3.org/2000/svg">
<g id="Group 774">
<circle id="Ellipse 1699" cx="17" cy="17" r="17" fill="#1E1E1E"/>
<path id="Vector" d="M17 6.5C12.8595 6.5 9.5 9.52391 9.5 13.25C9.5 19.25 17 27.5 17 27.5C17 27.5 24.5 19.25 24.5 13.25C24.5 9.52391 21.1405 6.5 17 6.5ZM17 17C16.4067 17 15.8266 16.8241 15.3333 16.4944C14.8399 16.1648 14.4554 15.6962 14.2284 15.1481C14.0013 14.5999 13.9419 13.9967 14.0576 13.4147C14.1734 12.8328 14.4591 12.2982 14.8787 11.8787C15.2982 11.4591 15.8328 11.1734 16.4147 11.0576C16.9967 10.9419 17.5999 11.0013 18.1481 11.2284C18.6962 11.4554 19.1648 11.8399 19.4944 12.3333C19.8241 12.8266 20 13.4067 20 14C19.9991 14.7954 19.6828 15.5579 19.1204 16.1204C18.5579 16.6828 17.7954 16.9991 17 17Z" fill="white"/>
</g>
</svg>
