<svg width="16" height="21" viewBox="0 0 16 21" fill="none" xmlns="http://www.w3.org/2000/svg">
<path id="Vector" d="M3.55556 7.07143C3.55556 6.90093 3.62579 6.73742 3.75082 6.61686C3.87584 6.4963 4.04541 6.42857 4.22222 6.42857H11.7778C11.9546 6.42857 12.1242 6.4963 12.2492 6.61686C12.3742 6.73742 12.4444 6.90093 12.4444 7.07143C12.4444 7.24192 12.3742 7.40544 12.2492 7.526C12.1242 7.64656 11.9546 7.71429 11.7778 7.71429H4.22222C4.04541 7.71429 3.87584 7.64656 3.75082 7.526C3.62579 7.40544 3.55556 7.24192 3.55556 7.07143ZM4.22222 0C4.04541 0 3.87584 0.0677294 3.75082 0.188289C3.62579 0.308848 3.55556 0.472361 3.55556 0.642857C3.55556 0.813353 3.62579 0.976867 3.75082 1.09743C3.87584 1.21799 4.04541 1.28571 4.22222 1.28571H4.44444V2.14286H3.11111C2.28599 2.14286 1.49467 2.45893 0.911224 3.02154C0.327777 3.58415 1.02586e-07 4.34721 1.02586e-07 5.14286V16.7143C-0.000191956 17.4358 0.269297 18.1332 0.759071 18.6787C1.24884 19.2242 1.92609 19.5812 2.66667 19.6843V20.3571C2.66667 20.5276 2.7369 20.6912 2.86193 20.8117C2.98695 20.9323 3.15652 21 3.33333 21C3.51014 21 3.67971 20.9323 3.80474 20.8117C3.92976 20.6912 4 20.5276 4 20.3571V19.7143H12V20.3571C12 20.5276 12.0702 20.6912 12.1953 20.8117C12.3203 20.9323 12.4899 21 12.6667 21C12.8435 21 13.013 20.9323 13.1381 20.8117C13.2631 20.6912 13.3333 20.5276 13.3333 20.3571V19.6843C14.0738 19.581 14.751 19.224 15.2407 18.6785C15.7305 18.1331 16 17.4358 16 16.7143V5.14286C16 4.34721 15.6722 3.58415 15.0888 3.02154C14.5053 2.45893 13.714 2.14286 12.8889 2.14286H11.5556V1.28571H11.7778C11.9546 1.28571 12.1242 1.21799 12.2492 1.09743C12.3742 0.976867 12.4444 0.813353 12.4444 0.642857C12.4444 0.472361 12.3742 0.308848 12.2492 0.188289C12.1242 0.0677294 11.9546 0 11.7778 0H4.22222ZM10.2222 1.28571V2.14286H5.77778V1.28571H10.2222ZM3.11111 3.42857H12.8889C13.3604 3.42857 13.8126 3.60918 14.146 3.93067C14.4794 4.25216 14.6667 4.6882 14.6667 5.14286V16.7143C14.6667 17.1689 14.4794 17.605 14.146 17.9265C13.8126 18.248 13.3604 18.4286 12.8889 18.4286H3.11111C2.63962 18.4286 2.18743 18.248 1.85403 17.9265C1.52063 17.605 1.33333 17.1689 1.33333 16.7143V5.14286C1.33333 4.6882 1.52063 4.25216 1.85403 3.93067C2.18743 3.60918 2.63962 3.42857 3.11111 3.42857Z" fill="black"/>
</svg>
